<svg xmlns="http://www.w3.org/2000/svg" xmlns:xlink="http://www.w3.org/1999/xlink" width="283.6440124511719" height="281.9978942871094" viewBox="0 0 283.6440124511719 281.9978942871094" fill="none">
<g  clip-path="url(#clip-path-PjLc2pQb4ZVrSbHmNPFZr)">
<path d="M273.31 86.9664C279.968 103.398 283.644 121.357 283.644 140.175C283.644 144.584 283.431 148.943 283.037 153.248C214.9 130.44 158.206 142.176 117.432 159.083C76.4189 176.088 34.5387 178.73 2.7666 168.151C0.9552 159.104 0 149.753 0 140.175C0 128.183 1.4961 116.54 4.3001 105.414C35.8806 115.408 77.0777 112.582 117.434 95.8487C156.251 79.7533 209.497 68.3416 273.31 86.9658L273.31 86.9664Z" fill-rule="evenodd"  fill="#004098" >
</path>
<path d="M258.289 221.097C232.667 257.9 190.056 281.998 141.823 281.998C99.3787 281.998 61.2898 263.336 35.2973 233.781C78.7348 236.208 109.834 235.803 137.554 224.044C166.377 211.814 215.109 207.221 258.29 221.097L258.289 221.097Z" fill-rule="evenodd"  fill="#004098" >
</path>
<path d="M25.4222 154.876L26.0467 154.768L27.504 163.032L26.8795 163.143L26.759 162.458C26.619 161.663 26.2383 161.134 25.6189 160.873C25.2187 160.707 24.3243 160.746 22.945 160.988L8.07421 163.609C6.91001 163.814 6.15031 164.013 5.80221 164.2C5.53551 164.346 5.32601 164.583 5.17461 164.912C4.97621 165.377 4.91981 165.837 5.00091 166.294L5.12131 166.979L4.49001 167.09L3.03281 158.823L3.66401 158.713L3.78731 159.412C3.92571 160.198 4.30441 160.723 4.91981 160.985C5.32601 161.157 6.21721 161.126 7.59461 160.882L22.4668 158.261C23.631 158.056 24.3907 157.858 24.7388 157.671C25.0055 157.523 25.2139 157.282 25.3632 156.946C25.5648 156.49 25.6269 156.032 25.5469 155.576L25.4216 154.876L25.4222 154.876ZM2.05421 153.611L1.96131 148.298L19.2792 136.023L5.80421 136.259C4.36961 136.283 3.47211 136.436 3.12431 136.709C2.64921 137.079 2.41681 137.644 2.42981 138.412L2.44141 139.092L1.80081 139.103L1.68231 132.287L2.32271 132.276L2.33431 132.972C2.34931 133.8 2.65971 134.38 3.25951 134.715C3.63371 134.919 4.47111 135.009 5.78321 134.986L25.4744 134.643L25.4843 135.165L6.89381 148.4L21.2867 148.15C22.7214 148.124 23.6137 147.981 23.9666 147.712C24.4431 147.34 24.6741 146.769 24.6611 146.01L24.6483 145.32L25.2844 145.308L25.4032 152.119L24.7668 152.131L24.7552 151.456C24.7405 150.617 24.4301 150.031 23.8235 149.691C23.4541 149.487 22.6119 149.397 21.3057 149.42L5.05411 149.704C4.27061 150.285 3.75501 150.729 3.50591 151.023C3.25901 151.324 3.03081 151.757 2.82301 152.328C2.72921 152.61 2.68301 153.037 2.69291 153.601L2.05371 153.611L2.05421 153.611ZM4.94731 108.199L12.2782 109.113L12.1824 109.606C10.2832 109.759 8.80011 110.144 7.72811 110.759C6.18941 111.644 5.24491 112.987 4.89681 114.782C4.42171 117.23 5.21401 119.318 7.27621 121.039C9.02121 122.488 11.2396 123.472 13.9342 123.996C16.1229 124.42 18.1902 124.456 20.1288 124.1C22.0734 123.74 23.5763 123.069 24.6367 122.083C25.7017 121.101 26.354 120.003 26.5901 118.793C26.7284 118.082 26.7511 117.378 26.6663 116.673C26.5813 115.969 26.3866 115.273 26.0903 114.579L19.455 113.289C18.305 113.066 17.541 112.991 17.1538 113.068C16.7734 113.144 16.4579 113.32 16.2122 113.593C15.9633 113.862 15.7646 114.384 15.6135 115.159L14.9729 115.034L16.4205 107.592L17.0609 107.718L16.9928 108.071C16.8483 108.811 17.045 109.37 17.5799 109.762C17.9583 110.032 18.7667 110.284 19.9916 110.522L27.0122 111.886C27.4983 113.109 27.8044 114.285 27.9294 115.404C28.0511 116.527 27.9847 117.734 27.7327 119.03C27.0122 122.742 25.0429 125.285 21.8259 126.664C19.4091 127.695 16.814 127.939 14.0264 127.398C12.0098 127.006 10.1559 126.224 8.45941 125.051C6.44601 123.661 5.01191 122.005 4.15441 120.097C3.44521 118.499 3.28421 116.741 3.65671 114.825C3.79301 114.124 3.98041 113.503 4.23071 112.953C4.47471 112.409 4.93141 111.659 5.59841 110.697C5.93631 110.216 6.12201 109.881 6.15771 109.702C6.19201 109.524 6.12311 109.35 5.95301 109.185C5.78091 109.021 5.40961 108.87 4.84211 108.729L4.94611 108.2L4.94731 108.199Z" fill-rule="evenodd"  fill="#FFFFFF" >
</path>
<path d="M30.8282 176.618C32.4496 175.06 33.5374 173.593 34.0906 172.211C34.6451 170.832 34.7655 169.432 34.4436 168.007L34.969 167.836C35.3236 169.116 35.46 170.564 35.3741 172.183C35.293 173.8 34.9677 175.408 34.4077 177.016C33.8465 178.618 33.1666 180.068 32.3681 181.358C32.165 182.882 31.8316 184.144 31.3713 185.145C30.6706 186.605 29.6492 187.895 28.3062 189.017C26.9563 190.139 25.234 191.042 23.1244 191.726C19.8005 192.806 16.7513 192.803 13.9657 191.712C11.186 190.619 9.3795 188.793 8.5467 186.228C7.7564 183.795 8.168 181.329 9.7925 178.832C11.4123 176.337 13.9042 174.541 17.2607 173.45C19.98 172.567 22.5757 172.427 25.0392 173.026C27.5065 173.629 29.4363 174.826 30.8287 176.618L30.8282 176.618ZM9.8603 185.987C10.4017 187.649 11.548 188.76 13.2981 189.316C15.4936 190.019 18.4323 189.772 22.1031 188.581C25.6938 187.413 28.2583 185.861 29.7776 183.932C30.9503 182.437 31.2675 180.862 30.7289 179.208C30.168 177.482 28.9692 176.344 27.1267 175.778C24.9568 175.114 22.1437 175.344 18.6891 176.466C16.0322 177.329 13.9116 178.398 12.3176 179.661C11.0897 180.642 10.2849 181.663 9.9008 182.746C9.5235 183.826 9.5088 184.904 9.8603 185.987Z" fill-rule="evenodd"  fill="#004098" >
</path>
<path d="M29.3984 107.519L28.8096 107.282L29.0843 106.6C29.3947 105.833 29.3204 105.171 28.8598 104.611C28.5899 104.273 27.8402 103.854 26.619 103.361L12.6181 97.7026C11.2654 97.1561 10.3691 96.9429 9.9317 97.0535C9.3217 97.2113 8.8775 97.6374 8.5997 98.3222L8.3248 99.0037L7.7312 98.7647L10.7172 91.3745C11.8119 88.6635 13.0184 86.7481 14.3209 85.6276C15.6282 84.5138 17.3148 83.8709 19.3751 83.6989C21.4404 83.5328 23.5953 83.9004 25.8426 84.8078C28.8575 86.0273 31.0677 87.8114 32.4711 90.1644C34.0322 92.8006 34.0985 95.8839 32.6758 99.4082L29.3972 107.519L29.3984 107.519ZM29.925 101.709C30.683 100.696 31.2134 99.8059 31.5238 99.0369C32.3597 96.9667 32.1877 94.8997 30.9982 92.8296C29.8156 90.7625 27.7375 89.125 24.7651 87.9233C21.776 86.7149 19.1378 86.4471 16.8613 87.1169C14.5814 87.7839 13.0116 89.1859 12.145 91.3292C11.8199 92.1345 11.6033 93.1099 11.4996 94.263L29.925 101.709ZM36.4189 74.0069L39.9189 74.6623C41.059 74.8766 41.8459 75.1028 42.2832 75.3548C42.6152 75.5467 42.8266 75.8282 42.9128 76.1959C43.0038 76.5683 42.8782 77.1029 42.5293 77.8005L43.0786 78.1177L46.9431 71.4243L46.3935 71.1071C45.9431 71.769 45.4016 72.1789 44.774 72.3351C44.1476 72.4913 43.0222 72.4161 41.3926 72.1077L21.1521 68.2926L20.9021 68.7283L34.1104 84.3112C35.2746 85.6707 35.9759 86.7033 36.2032 87.4026C36.3217 87.7507 36.2517 88.3185 35.9966 89.1153L36.5462 89.4322L39.63 84.0935L39.0804 83.7763C38.5358 84.5549 38.0772 84.9957 37.6999 85.1063C37.3254 85.214 36.9844 85.1825 36.6783 85.0056C36.2863 84.7794 35.7823 84.3001 35.1606 83.5611L32.6301 80.5691L36.4195 74.0069L36.4189 74.0069ZM35.1116 73.7206L31.7469 79.5475L25.2745 71.8764L35.1122 73.7206L35.1116 73.7206ZM35.6629 48.4999C37.3317 46.5809 39.6422 45.6701 42.6055 45.7776C45.5686 45.8833 48.3463 47.0642 50.9462 49.326C53.6281 51.658 55.2347 54.3022 55.7682 57.2539C56.3079 60.2104 55.7019 62.6936 53.9521 64.7073C52.1872 66.7386 49.8345 67.6962 46.9085 67.5839C43.9781 67.4663 41.1437 66.2173 38.4049 63.8351C35.6045 61.399 34.0174 58.6165 33.6313 55.4805C33.3062 52.7516 33.9843 50.4295 35.6629 48.4988L35.6629 48.4999ZM36.43 49.5264C35.2788 50.8504 34.9438 52.4214 35.42 54.2378C36.0122 56.4968 37.7098 58.8484 40.5198 61.291C43.4001 63.7957 46.0652 65.2039 48.5115 65.5211C50.3821 65.7553 51.8799 65.2235 53.0135 63.9224C54.2199 62.5351 54.5677 60.8256 54.0626 58.7979C53.5549 56.7714 51.9125 54.5451 49.1289 52.1252C46.114 49.5057 43.4304 48.0464 41.0805 47.7539C39.204 47.5294 37.6557 48.1164 36.4311 49.5264L36.43 49.5264Z" fill-rule="evenodd"  fill="#004098" >
</path>
<path d="M62.1028 25.8659L61.7354 25.3403L67.4161 21.3622L67.7837 21.8877L67.1768 22.3126C66.5475 22.7531 66.2825 23.4054 66.3845 24.2759C66.4251 24.6858 66.8126 25.4191 67.5586 26.4841L72.9935 34.2479C74.3403 36.1701 75.2247 37.7705 75.6445 39.049C76.0674 40.3325 76.0753 41.6852 75.674 43.0934C75.2677 44.5054 74.2609 45.777 72.6553 46.9026C70.9024 48.1286 69.3215 48.6978 67.9084 48.604C66.4934 48.5178 65.1693 47.9942 63.934 47.0359C63.0963 46.372 61.867 44.8926 60.2504 42.5846L55.0105 35.1006C54.1873 33.9248 53.5144 33.2467 52.9826 33.0727C52.4559 32.8958 51.8879 33.0205 51.2813 33.4451L50.6763 33.8701L50.309 33.3445L57.2403 28.4899L57.6099 29.0154L56.997 29.4449C56.3349 29.9084 56.0307 30.4895 56.099 31.1871C56.1364 31.6633 56.5367 32.4391 57.2848 33.5092L63.1275 41.855C63.6463 42.5979 64.3016 43.4112 65.086 44.2908C65.8746 45.1673 66.6065 45.7759 67.2814 46.101C67.9544 46.4261 68.6965 46.5676 69.5046 46.5188C70.3159 46.4752 71.1292 46.1642 71.9472 45.5902C72.9978 44.8552 73.7407 43.9251 74.1863 42.8009C74.6339 41.6772 74.7133 40.5794 74.4188 39.5144C74.1243 38.4491 73.2676 36.9009 71.8446 34.8681L66.416 27.1142C65.5781 25.9189 64.9426 25.2525 64.5168 25.1056C63.915 24.9089 63.3149 25.0209 62.7083 25.4435L62.1037 25.8664L62.1028 25.8659ZM68.7197 20.2825L69.0111 20.8534C69.5168 20.5965 69.9182 20.4503 70.2127 20.4126C70.8176 20.3494 71.3055 20.3641 71.6842 20.4551C72.0586 20.5478 72.6831 20.8176 73.5477 21.2684L80.9263 35.7503C81.5181 36.9145 81.8095 37.7096 81.7849 38.1314C81.7455 38.8242 81.354 39.3608 80.6071 39.7412L80.0053 40.0467L80.295 40.6128L86.3628 37.5211L86.0751 36.955L85.4606 37.2671C84.7837 37.6121 84.1708 37.6543 83.6257 37.3887C83.2286 37.1872 82.7098 36.449 82.0579 35.1706L75.5214 22.3458L95.5672 33.2535L96.0327 33.0163L87.0911 15.4684C86.4961 14.2994 86.2098 13.5071 86.2293 13.081C86.267 12.3945 86.6542 11.8616 87.3904 11.4854L88.01 11.1702L87.7186 10.599L81.646 13.6939L81.9374 14.2648L82.544 13.9575C83.2286 13.6077 83.8383 13.5692 84.3786 13.8339C84.7769 14.0275 85.3075 14.7677 85.9595 16.0455L92.0778 28.0539L73.4519 17.8705L68.7197 20.2825ZM106.029 28.681L106.224 29.2847L98.2423 31.8784L98.0455 31.2735L98.7074 31.0592C99.4765 30.8101 99.9467 30.3596 100.119 29.7094C100.227 29.2913 100.064 28.41 99.6312 27.078L94.9654 12.7165C94.5997 11.5929 94.2973 10.8678 94.0643 10.5486C93.8826 10.3045 93.617 10.1307 93.272 10.0267C92.7827 9.8952 92.3193 9.9034 91.8799 10.0466L91.218 10.2611L91.0193 9.6514L99.0025 7.0574L99.2012 7.6672L98.5263 7.8866C97.7666 8.1337 97.3017 8.581 97.128 9.2265C97.0123 9.6542 97.1671 10.5307 97.6011 11.8627L102.269 26.2242C102.635 27.3498 102.937 28.0732 103.17 28.3941C103.354 28.6362 103.622 28.8102 103.977 28.9108C104.455 29.0461 104.916 29.0444 105.357 28.9009L106.029 28.6815L106.029 28.681ZM120.876 1.4341L114.992 2.7919L115.135 3.4163C115.256 3.4132 115.339 3.4132 115.387 3.4132C116.064 3.3837 116.57 3.4895 116.91 3.7185C117.253 3.9546 117.458 4.2324 117.534 4.5595C117.652 5.0635 117.637 6.0148 117.497 7.4183L116.04 21.6335L108.103 9.4054C107.396 8.3194 106.979 7.4976 106.849 6.9353C106.756 6.533 106.815 6.1705 107.015 5.8521C107.22 5.5398 107.75 5.2245 108.611 4.9221L108.468 4.2976L100.673 6.0962L100.816 6.7207C101.411 6.6444 101.899 6.6572 102.287 6.7808C102.677 6.8964 103.029 7.098 103.339 7.3956C103.544 7.5824 103.941 8.1374 104.543 9.0607L116.221 27.0422L116.74 26.9218L118.922 6.0063C119.046 4.788 119.293 3.8435 119.661 3.1802C119.927 2.7326 120.376 2.357 121.02 2.0565L120.877 1.4341L120.876 1.4341ZM129.645 2.2212L130.289 11.4344L134.582 11.1351C135.698 11.0571 136.426 10.8051 136.773 10.3802C137.237 9.8178 137.448 8.8693 137.414 7.5345L137.945 7.4968L138.513 15.6135L137.981 15.649C137.769 14.5256 137.581 13.8081 137.426 13.4941C137.227 13.1068 136.919 12.8095 136.509 12.6096C136.101 12.4081 135.488 12.333 134.672 12.3902L130.378 12.6907L130.917 20.3783C130.988 21.4109 131.073 22.0371 131.161 22.2537C131.255 22.4717 131.4 22.6372 131.601 22.7594C131.801 22.875 132.175 22.9136 132.71 22.8767L136.024 22.6446C137.125 22.5683 137.926 22.4232 138.409 22.2007C138.898 21.9844 139.35 21.5909 139.773 21.02C140.318 20.2689 140.853 19.1531 141.377 17.6763L141.953 17.6358L140.681 23.5979L125.627 24.6501L125.583 24.0157L126.276 23.9672C126.733 23.9366 127.16 23.7688 127.556 23.478C127.853 23.2744 128.04 22.9839 128.128 22.6125C128.211 22.2353 128.213 21.4804 128.133 20.3468L127.075 5.2013C126.971 3.721 126.783 2.8219 126.508 2.4917C126.133 2.0577 125.541 1.8692 124.734 1.9256L124.041 1.9743L123.996 1.3348L139.05 0.282598L139.624 5.3728L139.058 5.4119C138.77 4.1987 138.491 3.3755 138.212 2.935C137.934 2.4942 137.55 2.1671 137.053 1.9607C136.656 1.8176 135.973 1.777 135.004 1.8451L129.645 2.2207L129.645 2.2212ZM161.603 24.6753L156.386 24.3108L150.535 12.9512C150.045 12.9353 149.647 12.9189 149.338 12.8979C149.216 12.89 149.083 12.8801 148.935 12.8633C148.793 12.8475 148.645 12.8307 148.491 12.8081L148.018 19.5798C147.915 21.047 147.988 21.9654 148.229 22.3427C148.562 22.873 149.091 23.1639 149.82 23.2143L150.587 23.2676L150.544 23.902L142.175 23.3164L142.218 22.682L142.951 22.7325C143.777 22.7908 144.391 22.5099 144.789 21.8945C145.015 21.5498 145.177 20.7119 145.27 19.3867L146.322 4.3228C146.425 2.8556 146.352 1.9372 146.109 1.5662C145.771 1.0344 145.23 0.743 144.491 0.6914L143.759 0.6392L143.802 0L150.918 0.4978C152.991 0.6423 154.508 0.9318 155.466 1.3646C156.426 1.7924 157.214 2.5126 157.836 3.5294C158.45 4.5507 158.714 5.7249 158.619 7.0696C158.518 8.5005 158.043 9.7172 157.183 10.7189C156.328 11.7142 155.066 12.3761 153.394 12.695L156.957 19.6671C157.769 21.2689 158.493 22.3458 159.117 22.8971C159.746 23.4417 160.589 23.8258 161.646 24.0404L161.603 24.6747L161.603 24.6753ZM148.564 11.7233C148.75 11.7363 148.908 11.7479 149.04 11.7627C149.173 11.7774 149.286 11.7921 149.368 11.797C151.232 11.9273 152.671 11.545 153.682 10.6469C154.699 9.7509 155.256 8.5572 155.361 7.0679C155.464 5.6123 155.163 4.4008 154.463 3.4376C153.763 2.4752 152.783 1.9466 151.524 1.8587C150.968 1.8193 150.207 1.8797 149.241 2.0296L148.563 11.7238L148.564 11.7233ZM178.559 4.4555L176.74 12.3319L176.222 12.2114C176.397 10.658 176.375 9.3852 176.148 8.3911C175.919 7.3911 175.459 6.5356 174.771 5.828C174.086 5.114 173.316 4.659 172.452 4.4586C171.476 4.2344 170.588 4.4014 169.785 4.9663C168.982 5.5287 168.479 6.264 168.269 7.17C168.108 7.8627 168.165 8.5473 168.437 9.2075C168.822 10.1835 169.95 11.6206 171.81 13.5235C173.329 15.0749 174.347 16.2349 174.852 16.9977C175.364 17.7554 175.703 18.5933 175.862 19.5004C176.023 20.4126 175.999 21.3205 175.791 22.2248C175.392 23.9499 174.487 25.3046 173.08 26.2956C171.668 27.2857 170.083 27.5788 168.32 27.1701C167.762 27.0417 167.256 26.8696 166.791 26.6545C166.514 26.536 165.957 26.1893 165.126 25.6297C164.295 25.0637 163.755 24.7516 163.511 24.6949C163.275 24.6396 163.074 24.6852 162.895 24.8185C162.724 24.9537 162.542 25.2802 162.351 25.791L161.834 25.6723L163.635 17.8642L164.154 17.9847C164.022 19.6764 164.071 20.9721 164.297 21.8812C164.523 22.7835 164.996 23.6064 165.722 24.3417C166.444 25.0699 167.313 25.5549 168.327 25.789C169.5 26.0589 170.511 25.9064 171.364 25.3239C172.211 24.7416 172.753 23.9482 172.987 22.9394C173.115 22.377 173.115 21.7865 172.995 21.1538C172.868 20.5214 172.585 19.9001 172.156 19.2824C171.869 18.8595 171.035 17.9178 169.655 16.4463C168.272 14.9808 167.316 13.8407 166.774 13.0343C166.233 12.221 165.88 11.3851 165.699 10.5233C165.527 9.6551 165.548 8.7489 165.765 7.8092C166.142 6.1747 166.991 4.8915 168.315 3.9535C169.637 3.0149 171.11 2.734 172.734 3.1076C173.746 3.3418 174.755 3.8815 175.75 4.739C176.209 5.1409 176.55 5.3651 176.763 5.4139C177.005 5.4692 177.228 5.4298 177.422 5.2934C177.618 5.152 177.822 4.83 178.039 4.3308L178.56 4.4561L178.559 4.4555ZM183.283 30.439L182.608 30.2207C182.167 30.0776 181.795 29.8077 181.488 29.4154C181.26 29.1243 181.145 28.8286 181.139 28.5225C181.138 28.1254 181.318 27.3631 181.684 26.2378L186.35 11.8763C186.784 10.5443 187.173 9.743 187.518 9.4663C188.037 9.0482 188.677 8.9586 189.437 9.2064L190.112 9.4258L190.31 8.816L182.328 6.2221L182.13 6.8318L182.79 7.0464C183.231 7.1895 183.611 7.4546 183.928 7.8497C184.146 8.136 184.256 8.4317 184.262 8.7361C184.262 9.1332 184.083 9.8952 183.717 11.0208L179.049 25.3823C178.616 26.714 178.229 27.5224 177.898 27.7971C177.376 28.2217 176.73 28.3079 175.962 28.059L175.302 27.8445L175.106 28.4494L183.089 31.0431L183.282 30.4384L183.283 30.439ZM207.677 16.3032L205.646 21.3999L205.14 21.1754C205.438 20.2516 205.587 19.5656 205.586 19.1084C205.586 18.3813 205.418 17.7732 205.098 17.2823C204.772 16.7893 204.244 16.38 203.506 16.0512L200.983 14.9287L193.718 31.2455C193.137 32.5565 192.892 33.4281 192.981 33.859C193.118 34.4478 193.538 34.8982 194.232 35.2069L194.854 35.4835L194.597 36.0644L187.009 32.6866L187.268 32.1058L187.902 32.3887C188.66 32.7254 189.317 32.6911 189.876 32.2829C190.219 32.0358 190.659 31.3104 191.192 30.117L198.456 13.8022L196.305 12.8444C195.471 12.4739 194.845 12.2831 194.429 12.272C193.88 12.2672 193.316 12.4787 192.742 12.8996C192.165 13.3245 191.629 14.0006 191.137 14.9411L190.636 14.7186L193.077 9.8056L207.677 16.3043L207.677 16.3032ZM222.037 25.4007L221.697 25.9438C222.141 26.2205 222.434 26.4872 222.58 26.7455C222.72 27.0054 222.789 27.2772 222.772 27.5655C222.757 27.8549 222.664 28.1364 222.494 28.4111C222.211 28.8598 221.541 29.3837 220.48 29.9971L213.405 34.0739L213.932 25.5181C214.002 24.2918 214.15 23.5032 214.37 23.1554C214.638 22.7256 214.999 22.5011 215.459 22.4901C215.915 22.4773 216.331 22.593 216.717 22.8319L217.084 23.063L217.424 22.5196L210.324 18.0819L209.983 18.6253C210.291 18.8189 210.5 19.0125 210.603 19.2141C210.992 19.9284 211.207 20.471 211.247 20.8375C211.286 21.2032 211.275 22.0408 211.202 23.347L210.57 34.4951L207.637 39.1904C206.944 40.2979 206.411 40.9564 206.038 41.1537C205.428 41.4788 204.768 41.4204 204.064 40.9827L203.48 40.6171L203.143 41.1554L210.194 45.5613L210.531 45.0216L209.992 44.6848C209.324 44.267 208.962 43.7562 208.909 43.1544C208.869 42.7068 209.229 41.8776 209.99 40.6593L213.097 35.6862L221.803 30.6658C222.884 30.0234 223.727 29.5988 224.322 29.389C224.918 29.1796 225.49 29.0917 226.036 29.1206C226.585 29.1532 226.963 29.236 227.177 29.3695L227.495 29.5679L227.833 29.0245L222.036 25.403L222.037 25.4007Z" fill-rule="evenodd"  fill="#004098" >
</path>
<path d="M180.779 229.476L184.581 227.62L184.961 227.62L184.961 240.81C184.961 241.682 184.996 242.228 185.067 242.445C185.142 242.658 185.295 242.822 185.523 242.941C185.755 243.054 186.223 243.121 186.93 243.137L186.93 243.562L181.052 243.562L181.052 243.137C181.79 243.121 182.266 243.058 182.483 242.946C182.696 242.835 182.845 242.686 182.931 242.498C183.012 242.308 183.057 241.747 183.057 240.812L183.057 232.376C183.057 231.241 183.017 230.513 182.943 230.19C182.888 229.943 182.79 229.761 182.647 229.647C182.505 229.533 182.338 229.475 182.136 229.475C181.853 229.475 181.456 229.592 180.95 229.832L180.778 229.475L180.779 229.476ZM193.239 243.884L193.239 243.459C194.238 243.444 195.171 243.212 196.026 242.759C196.888 242.311 197.721 241.525 198.523 240.404C199.324 239.285 199.884 238.054 200.198 236.709C198.991 237.485 197.901 237.874 196.926 237.874C195.83 237.874 194.886 237.449 194.104 236.6C193.321 235.751 192.926 234.626 192.926 233.219C192.926 231.851 193.32 230.635 194.104 229.566C195.047 228.268 196.282 227.621 197.802 227.621C199.084 227.621 200.181 228.152 201.094 229.213C202.216 230.527 202.775 232.147 202.775 234.073C202.775 235.806 202.351 237.427 201.497 238.928C200.645 240.429 199.457 241.675 197.939 242.662C196.7 243.48 195.355 243.886 193.893 243.886L193.239 243.886L193.239 243.884ZM200.381 235.857C200.52 234.858 200.591 234.061 200.591 233.461C200.591 232.715 200.461 231.913 200.21 231.048C199.954 230.185 199.596 229.523 199.132 229.062C198.669 228.599 198.142 228.372 197.547 228.372C196.864 228.372 196.265 228.677 195.751 229.291C195.237 229.903 194.98 230.819 194.98 232.031C194.98 233.65 195.322 234.921 196.007 235.833C196.503 236.493 197.121 236.823 197.848 236.823C198.201 236.823 198.622 236.74 199.105 236.573C199.588 236.404 200.014 236.163 200.381 235.858L200.381 235.857ZM206.834 235.846C206.834 234.063 207.1 232.532 207.639 231.245C208.177 229.96 208.889 228.999 209.781 228.371C210.473 227.871 211.184 227.62 211.924 227.62C213.118 227.62 214.195 228.233 215.145 229.451C216.336 230.967 216.931 233.013 216.931 235.606C216.931 237.417 216.672 238.955 216.15 240.221C215.629 241.491 214.964 242.411 214.152 242.981C213.341 243.555 212.56 243.838 211.805 243.838C210.318 243.838 209.076 242.961 208.086 241.198C207.25 239.718 206.834 237.932 206.834 235.846ZM209.089 236.133C209.089 238.283 209.352 240.04 209.884 241.396C210.32 242.541 210.977 243.115 211.84 243.115C212.258 243.115 212.687 242.927 213.13 242.557C213.579 242.183 213.917 241.558 214.145 240.686C214.499 239.363 214.675 237.501 214.675 235.098C214.675 233.317 214.491 231.831 214.121 230.64C213.846 229.756 213.488 229.13 213.052 228.762C212.738 228.51 212.357 228.385 211.912 228.385C211.391 228.385 210.925 228.617 210.517 229.085C209.966 229.723 209.59 230.725 209.388 232.092C209.189 233.459 209.089 234.803 209.089 236.133L209.088 236.133L209.089 236.133ZM221.205 243.884L221.205 243.459C222.204 243.444 223.136 243.212 223.992 242.759C224.853 242.311 225.687 241.525 226.488 240.404C227.29 239.285 227.85 238.054 228.163 236.709C226.957 237.485 225.867 237.874 224.891 237.874C223.795 237.874 222.85 237.449 222.068 236.6C221.288 235.751 220.893 234.626 220.893 233.219C220.893 231.851 221.286 230.635 222.068 229.566C223.013 228.268 224.247 227.621 225.768 227.621C227.049 227.621 228.147 228.152 229.058 229.213C230.182 230.527 230.741 232.147 230.741 234.073C230.741 235.806 230.316 237.427 229.463 238.928C228.611 240.429 227.423 241.675 225.904 242.662C224.665 243.48 223.32 243.886 221.858 243.886L221.205 243.886L221.205 243.884ZM228.349 235.857C228.487 234.858 228.557 234.061 228.557 233.461C228.557 232.715 228.429 231.913 228.177 231.048C227.922 230.185 227.564 229.523 227.1 229.062C226.636 228.599 226.11 228.372 225.514 228.372C224.831 228.372 224.233 228.677 223.719 229.291C223.205 229.903 222.948 230.819 222.948 232.031C222.948 233.65 223.29 234.921 223.974 235.833C224.47 236.493 225.087 236.823 225.813 236.823C226.168 236.823 226.589 236.74 227.072 236.573C227.553 236.404 227.978 236.163 228.349 235.858L228.349 235.857Z" stroke="#ffffff" stroke-width="0.0638"    fill-rule="evenodd"  fill="#FFFFFF" >
</path>
<path d="M231.242 165.721L230.529 165.167L230.174 164.613L229.461 164.613L228.481 164.891L227.858 165.351L227.501 165.996L227.234 166.549L226.878 167.287L226.522 167.747L226.522 168.392L226.164 169.129L226.164 169.867L225.989 170.604L226.078 171.433L226.078 172.908L225.989 173.646L225.812 174.29L225.633 175.12L225.456 175.764L225.189 176.502L225.189 177.146L224.922 177.975L224.655 178.897L224.387 179.451L224.031 179.911L223.764 180.556L223.32 181.017L222.252 181.57L220.917 181.847L220.028 182.307L218.959 183.045L217.891 183.689L217.179 184.333L216.466 184.888L216.2 185.532L216.11 186.176L216.2 186.637L216.912 186.913L217.979 187.097L218.959 187.004L219.403 186.635L219.937 186.358L220.471 186.174L221.094 186.082L221.807 186.358L221.807 186.911L221.63 187.466L221.361 188.019L221.005 188.848L220.382 189.77L219.847 190.507L219.492 191.429L218.869 192.258L218.513 193.087L218.155 194.009L217.799 194.562L217.444 195.299L216.998 195.76L216.465 196.405L216.287 196.866L216.287 197.786L216.465 198.431L216.998 198.801L217.444 199.17L218.066 199.078L218.512 198.432L219.046 197.788L219.401 197.144L219.845 196.407L220.47 195.485L221.182 194.194L222.162 192.72L223.052 191.245L223.231 189.863L223.853 188.479L224.387 187.371L224.832 186.634L225.009 185.713L224.92 185.16L225.363 184.884L226.076 184.791L227.143 184.145L227.855 183.501L228.92 183.501L229.545 183.131L230.167 182.486L231.058 182.302L231.948 182.12L233.195 181.842C233.73 181.198 233.73 180.646 233.73 180.646L233.73 177.326L233.105 176.13L232.838 175.022L232.749 173.916L232.749 172.625L232.659 172.072L232.569 170.964L232.48 170.043L232.122 169.49L231.855 170.687L231.499 171.424L231.232 172.162L231.232 172.899L231.142 173.914L230.787 175.02L230.609 175.757L230.431 176.402L230.254 177.139L229.72 177.876L229.097 178.338L228.296 178.707L227.852 179.167L227.228 179.444L226.961 178.891L227.051 178.154L227.407 177.415L227.585 176.678L227.941 175.848L228.031 175.294L228.298 174.465L228.475 173.544L228.476 172.622L228.476 171.886L228.742 171.057L228.742 170.135L228.832 169.214L228.922 168.476L229.457 168.106L230.257 167.646L231.325 167.186L231.502 166.264L231.242 165.721Z" fill-rule="evenodd"  fill="#004098" >
</path>
<path d="M228.926 193.835L229.64 194.572L230.44 195.402L231.064 196.232L231.598 197.153L232.042 197.797L232.31 198.259L232.844 198.812L233.379 199.089L234.002 199.089L234.803 199.089L235.96 198.812L236.228 198.074L236.228 197.43L236.228 196.693L235.516 195.585L234.624 194.665L233.556 193.374L232.31 191.806L231.064 190.609L230.263 189.594L229.195 189.042L227.949 188.856L226.702 189.227L226.166 189.871L226.257 190.884L226.612 191.439L226.968 191.991L227.501 192.452L228.216 193.097L228.926 193.835Z" fill-rule="evenodd"  fill="#004098" >
</path>
<path d="M251.429 171.128L250.797 171.778L250.585 172.972L250.901 174.057L251.953 174.817L252.479 175.685L252.794 176.226L253.215 176.877L253.742 177.204L254.584 177.853L254.584 178.503L254.057 178.722L253.215 178.94L252.584 179.374L251.951 180.242L251.003 180.893L250.267 181.652L249.846 182.303L249.214 183.062L248.581 184.04L248.267 185.017L248.371 185.778L248.687 186.538L249.212 186.863L250.055 187.513L250.792 187.838L252.265 187.838L253.002 187.404L253.739 186.968L254.685 186.318L255.422 185.776L256.79 184.583L257.633 183.823L259 183.173L259.633 182.629L261 181.761L261.949 181.653L263.632 181.328L264.578 181.003L265.736 180.569L266.789 180.244L267.838 180.243L268.47 180.46L269.103 180.785L269.417 181.546L268.996 182.195L268.365 182.738L267.312 183.388L265.943 184.15L265.312 184.909L265.1 185.56L266.362 185.452L267.52 184.802C268.047 184.476 268.469 184.258 268.469 184.258L269.206 184.258L269.943 184.151L270.468 183.607C270.994 183.064 271.626 182.957 271.626 182.957L272.888 182.414L273.413 181.547L273.517 180.679L273.096 179.485L272.254 178.835L271.203 177.75L269.624 177.208L267.73 177.1L266.256 177.1L264.467 177.533L262.888 177.969L261.73 178.511L260.151 179.161L258.993 179.922L257.731 180.789L256.889 181.657L255.942 182.526L255.205 183.285L254.468 183.829L253.943 184.263L253.205 184.044L252.89 183.394L253.417 182.744L254.467 181.877L255.837 181.009L256.887 180.14L257.73 179.273L258.573 178.838L259.521 177.86L259.625 177.211C259.625 176.668 259.521 176.232 259.521 176.232L258.785 176.233L257.942 176.125L258.152 175.475L258.889 174.824L259.731 174.283L260.468 173.631C260.994 173.089 261.101 172.655 261.101 172.655L261.732 172.437L262.469 172.111L263.312 171.786L263.627 171.243L264.153 170.699L264.785 170.592L265.416 170.699L265.52 171.461L264.889 172.22L263.731 172.871L263.098 173.63L261.942 174.609L260.994 175.258L259.522 175.911L260.784 176.345L261.834 176.345L263.096 175.911C263.622 175.476 264.148 174.825 264.148 174.825L264.781 174.5L264.884 173.85L265.935 173.524C266.462 173.091 266.567 172.547 266.567 172.547L267.304 172.329L268.041 172.328L268.884 171.894L269.517 171.352L269.937 170.809L270.463 169.941L270.463 168.205L270.042 167.337L269.621 166.577L268.673 166.252L267.726 165.927L265.936 166.145L264.464 167.448L262.675 169.183L261.306 170.267L261.096 171.245L260.359 171.354L259.201 171.027L258.675 170.377L257.832 170.052L257.201 170.053L256.568 170.702L256.147 171.571L255.937 172.657L255.834 173.633L255.307 173.525L254.886 172.765L254.465 171.897L253.939 171.247L253.307 170.813L252.463 170.812L251.428 171.128L251.429 171.128Z" fill-rule="evenodd"  fill="#004098" >
</path>
<path d="M254.587 190.01L254.797 190.659L256.376 190.659L256.691 190.118L257.323 189.684L258.06 189.466L258.163 190.551L257.848 191.312L257.427 191.96L257.217 192.722L257.743 193.263L257.743 194.24L257.006 194.459L256.059 194.459L255.112 194.677L254.269 195.111L253.533 195.761L252.9 196.304L252.9 196.955L252.796 197.605L253.217 198.365L253.744 198.69L254.48 198.69C254.48 198.69 254.691 198.582 255.322 198.472C255.955 198.364 257.005 198.147 257.005 198.147L258.163 197.496L258.689 197.062C258.689 197.062 258.585 197.062 259.321 197.062C260.058 197.062 260.583 196.955 260.583 196.955L260.795 198.039L260.795 198.908L260.691 199.775L260.058 200.425L259.321 200.861L258.269 201.295L257.534 201.729L256.691 201.947L255.849 201.947L255.322 201.622L254.691 201.297L253.954 200.754L253.429 200.429L252.586 200.321L252.059 200.755L251.85 201.298L252.164 202.058L252.796 202.166C253.322 202.384 253.848 202.493 253.848 202.493L254.585 202.818L255.217 203.359L255.954 203.468L256.9 203.902L258.374 204.01L259.635 204.119L260.268 203.793L261.424 203.468C261.951 202.925 262.476 202.491 262.476 202.491L263.319 201.73L263.53 200.753L263.53 197.497L263.74 196.847L264.583 196.63L265.215 196.63C265.636 197.171 266.371 197.389 266.371 197.389L267.108 197.171L267.845 196.63L268.266 195.545L268.266 194.892L267.845 193.701L266.266 192.94L264.583 192.289L263.321 192.508L262.059 193.051L261.112 193.158L260.164 192.941L259.638 192.29L259.217 191.749L259.321 190.88L260.583 190.446L261.32 190.445L261.953 190.445L263.109 190.12L263.636 189.686L264.267 189.359L264.794 188.383L264.794 187.08L264.161 186.212L263.424 185.668L260.793 185.668L259.95 186.212L258.792 186.755L257.844 187.515L256.793 188.056L255.531 188.492L255.216 189.142C255.216 189.142 254.691 190.12 254.587 190.011L254.587 190.01Z" fill-rule="evenodd"  fill="#004098" >
</path>
<path d="M192.047 166.822L190.871 166.354L189.152 166.354L188.429 166.728L187.796 167.383L187.162 167.945L186.258 168.507L185.715 168.881L185.171 169.349L184.63 170.004L183.724 170.66L183.001 171.314L182.278 172.064L181.915 172.907L181.555 173.937L181.555 175.81L181.374 177.029L181.283 177.873L181.283 179.932L181.192 181.054L181.099 182.366L181.009 183.209L181.009 186.113L180.918 186.863L182.094 186.862L182.547 186.956C182.999 187.33 183.269 187.985 183.269 187.985L183.631 188.548L183.994 189.298L185.078 189.298L185.169 190.047L184.99 190.702L184.99 191.264L185.623 191.827L186.438 192.108L187.16 192.109L190.868 192.109C190.868 192.109 191.14 192.203 191.952 192.109C192.768 192.015 192.859 191.827 192.859 191.827L193.311 191.546L193.853 191.264L195.119 191.264L195.752 191.546L196.567 192.014L196.658 192.762L196.205 193.512L195.664 193.98L195.212 194.636L194.759 195.291L193.944 196.133L193.582 196.602L193.04 197.257L192.134 197.912L191.321 198.098L190.777 197.816L190.234 197.444L189.784 197.07C189.784 196.507 189.964 195.946 189.964 195.946L189.964 195.292L189.784 194.73L189.603 194.261L189.151 193.793L188.788 193.324L187.34 193.138L186.527 193.324C186.256 193.793 185.712 194.355 185.712 194.355L184.897 194.73L184.446 194.261L184.355 193.699L183.812 192.856L183.721 192.012L183.63 191.168L182.998 190.606L182.003 190.326L181.37 190.699L180.827 190.793L180.736 191.355L180.736 192.479L180.555 193.227L180.555 194.258L179.56 194.164L178.656 194.35L177.752 194.537L177.028 195.1L176.305 195.662L175.492 196.41L175.039 196.972L174.859 197.628L174.678 198.376L174.678 199.22L174.95 199.875L175.402 200.436L176.124 200.717L176.758 200.812L177.212 200.814L177.755 200.532L178.388 200.253L178.931 199.971L179.474 199.877L180.559 199.503L181.012 199.129L181.464 198.566L181.915 198.098L182.458 197.723L183 197.724L183.813 197.445L184.357 196.695C184.807 196.413 185.442 196.132 185.442 196.132L185.985 195.945L186.528 195.945L187.522 196.039L187.159 196.601L186.165 196.788L185.622 197.162L185.259 197.631L185.259 198.097L186.254 198.379L186.796 198.285L187.248 197.816L187.701 197.912L188.423 198.192L188.875 198.566L189.147 199.035C189.238 199.503 189.599 199.971 189.599 199.971L190.232 200.719C191.047 201.001 190.775 201.188 190.775 201.188L191.317 201.188L192.13 201.094L192.673 201.094L193.217 201L193.76 200.999L194.392 200.718L195.026 200.436L195.477 200.062L196.201 199.689L196.563 199.127L197.376 198.564L197.829 198.002L198.1 197.348L198.372 196.88L198.823 196.317L199.185 195.849L199.276 195.195L199.548 194.727L200 194.164L200 192.385L199.909 191.822L199.728 190.978L199.373 190.512L198.65 189.764L197.927 189.295L197.023 188.921L195.666 188.921L195.031 188.734L193.223 188.734L192.317 188.828L191.774 189.11L191.323 189.391L190.689 189.766L189.785 190.328L189.241 190.421L188.337 190.328L187.522 190.141L187.431 189.579L187.794 189.016L188.516 188.642L188.879 188.08L189.242 187.613L189.604 187.145L190.147 186.771L190.689 186.396L190.961 185.741L190.961 184.991L190.598 184.524L190.056 184.243L189.242 184.337L188.426 184.524L187.976 184.805L187.613 185.274L187.07 185.273L186.529 184.805L186.529 184.15L186.89 183.587L187.976 183.306L188.789 183.119L189.695 182.839L190.058 182.371L190.058 181.715L190.236 181.06L190.599 180.498L190.871 179.937L190.962 179.187L191.414 178.812L191.505 177.689L191.505 177.128L191.775 176.565L192.138 175.91L192.953 175.441L193.676 174.694L193.855 173.663L193.765 172.726L193.313 171.791L192.95 171.136L192.316 170.669L191.503 170.949L190.325 171.417L189.693 171.699L188.878 171.98L188.245 172.449L187.25 172.823L186.707 173.196L186.256 173.664L185.622 173.851L184.898 173.664L184.448 173.102L184.357 172.167L184.898 171.512L185.442 171.043L186.348 170.761L186.617 170.2L187.612 169.919L188.066 169.916L190.235 169.916L190.87 169.73L191.232 169.167C191.595 168.699 192.046 168.23 192.046 168.23L192.137 167.482L192.047 166.822ZM184.457 181.513L184.842 180.955L185.689 181.114L185.844 181.513L185.921 182.149L185.921 182.546L185.844 183.66L185.305 183.897L184.688 183.898L184.457 183.26L184.457 181.513ZM186.923 179.842L187.385 179.524L187.539 178.968L188.617 178.888L188.926 179.285L189.002 180.32C189.002 180.32 188.848 180.876 188.386 180.956C187.924 181.036 187.769 181.115 187.769 181.115L187.384 181.195L186.998 180.878L186.922 180.481L186.922 179.842L186.923 179.842ZM188.85 174.676L189.852 174.597L190.083 175.155L190.007 175.791L189.929 176.427C189.929 176.427 189.774 176.905 189.312 176.825L188.696 176.905L187.616 177.064L187.31 177.541L187.001 178.019L186.694 178.655L186.538 179.128L185.381 179.048L184.998 178.731L184.998 177.936L185.536 177.619L185.614 177.062L185.922 176.584L186.845 176.267L187.309 175.791L188.002 175.076L188.851 174.676L188.85 174.676Z" fill-rule="evenodd"  fill="#004098" >
</path>
<path d="M138.754 181.946C138.976 182.489 139.195 183.032 139.416 183.575C139.784 183.696 140.153 183.815 140.522 183.936C140.837 183.939 141.153 183.944 141.47 183.948C141.742 183.915 142.015 183.885 142.287 183.854C142.783 183.714 143.279 183.576 143.775 183.438C143.86 183.142 143.944 182.849 144.027 182.555C144.347 182.598 144.667 182.643 144.988 182.686C144.939 182.935 144.887 183.185 144.839 183.436C144.675 184.063 144.678 183.99 144.396 184.706C143.406 187.214 144.778 188.466 145.499 190.062C145.014 190.646 144.174 191.273 143.689 191.858C143.293 192.188 142.898 192.518 142.503 192.848C141.999 193.273 141.498 193.695 140.995 194.12C140.63 194.366 140.263 194.611 139.899 194.857C139.776 195.156 139.653 195.454 139.53 195.753C139.135 196.083 138.739 196.413 138.344 196.743C137.988 197.068 137.632 197.394 137.276 197.72C137.027 197.953 136.778 198.184 136.53 198.416C136.452 198.751 136.372 199.085 136.293 199.419C136.227 199.873 136.162 200.329 136.096 200.784C136.119 200.984 136.143 201.184 136.164 201.386C136.821 202.557 137.063 202.164 138.376 202.103C139.554 201.871 139.795 201.922 140.654 201.057C143.072 198.62 144.778 195.933 147.44 193.616C147.719 193.299 147.997 192.982 148.276 192.666C148.637 192.38 148.997 192.094 149.358 191.809C149.778 191.679 150.195 191.551 150.614 191.421C150.87 191.268 151.129 191.115 151.389 190.966C151.626 190.978 151.864 190.991 152.101 191.005C152.461 191.044 152.819 191.085 153.179 191.123C153.466 191.211 153.752 191.299 154.036 191.388C154.361 191.473 154.685 191.557 155.013 191.64C156.36 193.343 155.952 195.334 153.141 195.88C152.786 195.95 152.459 196.121 152.118 196.243C151.721 196.208 151.323 196.173 150.924 196.139C150.458 196.193 149.992 196.246 149.526 196.302C149.216 196.336 148.903 196.373 148.594 196.409C148.253 196.53 147.911 196.65 147.571 196.772C147.445 197.031 147.316 197.289 147.189 197.55C146.993 197.898 146.797 198.245 146.602 198.594C146.682 198.95 146.763 199.306 146.843 199.662C147.001 200.009 147.158 200.357 147.318 200.705C147.56 200.757 147.804 200.811 148.045 200.864C149.373 201.765 149.637 202.226 150.042 203.804C150.22 203.985 150.4 204.169 150.579 204.351C151.288 204.666 152.487 205.091 153.243 204.895C153.443 204.588 153.645 204.279 153.845 203.973C153.953 203.554 154.064 203.134 154.172 202.717C154.013 202.368 153.854 202.022 153.696 201.674C153.547 201.407 153.397 201.141 153.249 200.874C153.052 200.529 152.854 200.187 152.657 199.844C152.513 199.617 152.368 199.391 152.223 199.162C152.49 199.091 152.758 199.019 153.027 198.948C153.409 198.862 153.794 198.777 154.178 198.693C154.483 198.617 154.791 198.54 155.097 198.464C155.267 198.239 155.438 198.018 155.609 197.796C155.777 197.532 156.243 197.426 156.409 197.164C157.633 195.644 158.65 195.102 158.687 193.365C158.567 190.736 158.281 190.584 156.429 188.556C156.089 188.351 155.751 188.146 155.412 187.943C154.931 187.877 154.449 187.81 153.969 187.744C153.529 187.673 153.086 187.601 152.645 187.531C152.061 187.598 151.478 187.667 150.896 187.735C150.793 187.543 150.694 187.352 150.591 187.159C150.884 186.962 151.175 186.765 151.47 186.57C151.717 186.338 151.967 186.107 152.216 185.874C152.455 185.562 152.696 185.248 152.934 184.938C153.177 184.664 153.422 184.393 153.666 184.121C153.94 183.764 154.215 183.407 154.488 183.051C154.795 182.649 155.104 182.248 155.411 181.846C155.288 181.456 155.164 181.063 155.039 180.67C154.684 180.345 154.331 180.021 153.981 179.696C153.562 179.5 153.146 179.305 152.73 179.109C152.18 179.133 151.63 179.154 151.082 179.179C150.498 179.247 149.915 179.314 149.333 179.38C149.256 179.066 149.179 178.748 149.103 178.432C149.451 178.027 149.798 177.621 150.146 177.214C150.497 176.848 150.848 176.484 151.2 176.116C152.886 174.769 153.443 173.598 154.062 172.249C154.153 171.672 154.243 171.091 154.334 170.512C154.178 170.206 154.025 169.897 153.872 169.59C153.583 169.137 153.295 168.682 153.006 168.228C152.842 167.841 152.679 167.453 152.516 167.065C152.289 166.808 152.063 166.55 151.835 166.289C151.685 166.023 151.535 165.756 151.387 165.489C151.228 165.141 151.072 164.795 150.912 164.445C150.685 164.188 150.458 163.931 150.231 163.671C149.858 163.51 149.484 163.352 149.112 163.191C148.699 163.36 148.284 163.531 147.871 163.7C147.684 164.128 147.497 164.555 147.31 164.984C147.191 165.323 147.072 165.661 146.954 166C147.004 166.441 147.056 166.883 147.108 167.322C147.111 169.254 147.245 171.518 146.667 173.713C146.602 174.167 146.537 174.624 146.472 175.078C146.202 175.475 145.934 175.871 145.664 176.269C145.467 176.616 145.271 176.964 145.077 177.311C143.971 178.489 143.092 179.903 141.952 180.965C141.544 181.175 141.134 181.386 140.726 181.596C140.069 181.714 139.412 181.83 138.755 181.946L138.754 181.946ZM149.51 182.014L150.899 181.768L151.805 181.664L152.469 182.362L152.298 183.757L151.607 184.266L151.119 185.097L150.426 185.608L149.86 185.759L149.324 186.166L148.84 186.307L148.955 185.864L149.03 185.082L149.087 184.129L149.186 182.828L149.511 182.013L149.51 182.014ZM145.305 186.029L145.619 185.252L146.181 185.159L146.622 185.323L146.669 186.3L146.759 187.065L146.294 187.377L145.554 187.463L145.238 186.897L145.305 186.028L145.305 186.029Z" fill-rule="evenodd"  fill="#004098" >
</path>
</g>
<defs>
<clipPath id="clip-path-PjLc2pQb4ZVrSbHmNPFZr">
<path d="M0 281.998L283.644 281.998L283.644 0L0 0L0 281.998Z" fill="white"/>
</clipPath>
</defs>
</svg>
