<?xml version="1.0" standalone="no"?><!DOCTYPE svg PUBLIC "-//W3C//DTD SVG 1.1//EN" "http://www.w3.org/Graphics/SVG/1.1/DTD/svg11.dtd"><svg t="1779844626229" class="icon" viewBox="0 0 1024 1024" version="1.1" xmlns="http://www.w3.org/2000/svg" p-id="3341" xmlns:xlink="http://www.w3.org/1999/xlink" width="200" height="200"><path d="M866.987 136.533H157.49c-30.31 0-54.852 24.576-54.852 54.853v491.86c0 30.311 24.576 54.887 54.852 54.887h709.496c30.276 0 54.852-24.576 54.852-54.852V191.42c0-30.31-24.576-54.887-54.852-54.887zM622.319 778.581c10.07 0 18.261 8.192 18.261 18.296v50.79h153.26v73.148H226.167v-73.148h158.72v-50.79c0-10.07 8.192-18.262 18.262-18.262z m226.372-568.9V665.02H175.787V209.647H848.69z m-80.554 130.287h-73.182v276.48h73.147v-276.48z m-145.818-81.75H549.17v358.23h73.148v-358.23zM476.5 429.057h-73.147v187.392H476.5V429.056z m-145.817 82.261h-73.148v105.131h73.148v-105.13z" p-id="3342" fill="#1296db"></path></svg>