<?xml version="1.0" standalone="no"?><!DOCTYPE svg PUBLIC "-//W3C//DTD SVG 1.1//EN" "http://www.w3.org/Graphics/SVG/1.1/DTD/svg11.dtd"><svg height="540" node-id="1" sillyvg="true" template-height="540" template-width="960" version="1.1" viewBox="0 0 960 540" width="960" xmlns="http://www.w3.org/2000/svg" xmlns:xlink="http://www.w3.org/1999/xlink"><defs node-id="72"></defs><g node-id="220"><g node-id="228"><path d="M 820.00 512.00 C 820.00 324.22 667.78 172.00 480.00 172.00 C 292.22 172.00 140.00 324.22 140.00 512.00" fill="#69baf9" fill-opacity="0.2" fill-rule="nonzero" group-id="1,9" id="路径_1806" node-id="3" stroke="none" target-height="340" target-width="680" target-x="140" target-y="172"></path></g><g node-id="229"><path d="M 727.62 512.00 C 727.62 375.19 616.71 264.28 479.90 264.28 C 343.09 264.28 232.18 375.19 232.18 512.00" fill="#69baf9" fill-opacity="0.5" fill-rule="nonzero" group-id="1,10" id="路径_1807" node-id="4" stroke="none" target-height="247.72" target-width="495.4389" target-x="232.179" target-y="264.28"></path></g><path d="M 635.60 512.00 C 635.82 426.25 566.48 356.55 480.72 356.33 C 394.97 356.11 325.27 425.45 325.05 511.21 C 325.05 511.47 325.05 511.74 325.05 512.00" fill="#69baf9" fill-opacity="0.7" fill-rule="nonzero" group-id="1,11" id="路径_1808" node-id="5" stroke="none" target-height="155.887" target-width="310.76596" target-x="325.053" target-y="356.113"></path></g><g node-id="221"><path d="M 577.00 512.00 L 468.00 512.00 C 465.24 512.00 463.00 509.76 463.00 507.00 C 463.00 504.24 465.24 502.00 468.00 502.00 L 577.00 502.00 C 579.76 502.00 582.00 504.24 582.00 507.00 C 582.00 509.76 579.76 512.00 577.00 512.00 Z" fill="#3d3d63" fill-rule="nonzero" group-id="2" node-id="89" stroke="none" target-height="10" target-width="119" target-x="463" target-y="502"></path><path d="M 689.00 512.00 L 633.00 512.00 C 630.24 512.00 628.00 509.76 628.00 507.00 C 628.00 504.24 630.24 502.00 633.00 502.00 L 689.00 502.00 C 691.76 502.00 694.00 504.24 694.00 507.00 C 694.00 509.76 691.76 512.00 689.00 512.00 Z" fill="#3d3d63" fill-rule="nonzero" group-id="2" node-id="91" stroke="none" target-height="10" target-width="66" target-x="628" target-y="502"></path><path d="M 427.00 512.00 L 271.00 512.00 C 268.24 512.00 266.00 509.76 266.00 507.00 C 266.00 504.24 268.24 502.00 271.00 502.00 L 427.00 502.00 C 429.76 502.00 432.00 504.24 432.00 507.00 C 432.00 509.76 429.76 512.00 427.00 512.00 Z" fill="#3d3d63" fill-rule="nonzero" group-id="2" node-id="93" stroke="none" target-height="10" target-width="166" target-x="266" target-y="502"></path><path d="M 609.00 512.00 C 607.69 512.00 606.40 511.47 605.46 510.53 C 604.53 509.60 604.00 508.32 604.00 507.00 C 604.00 505.68 604.53 504.39 605.46 503.46 C 606.39 502.53 607.68 502.00 609.00 502.00 C 610.32 502.00 611.61 502.53 612.54 503.46 C 613.47 504.39 614.00 505.68 614.00 507.00 C 614.00 508.32 613.47 509.60 612.54 510.53 C 611.60 511.47 610.32 512.00 609.00 512.00 Z" fill="#3d3d63" fill-rule="nonzero" group-id="2" node-id="95" stroke="none" target-height="10" target-width="10" target-x="604" target-y="502"></path></g><path d="M 718.00 482.00 L 337.00 482.00 C 331.48 482.00 327.00 477.52 327.00 472.00 C 327.00 466.48 331.48 462.00 337.00 462.00 L 718.00 462.00 C 723.52 462.00 728.00 466.48 728.00 472.00 C 728.00 477.52 723.52 482.00 718.00 482.00 Z" fill="#3d3d63" fill-rule="nonzero" node-id="98" stroke="none" target-height="20" target-width="401" target-x="327" target-y="462"></path><path d="M 309.00 482.00 L 265.00 482.00 C 259.48 482.00 255.00 477.52 255.00 472.00 C 255.00 466.48 259.48 462.00 265.00 462.00 L 309.00 462.00 C 314.52 462.00 319.00 466.48 319.00 472.00 C 319.00 477.52 314.52 482.00 309.00 482.00 Z" fill="#3d3d63" fill-rule="nonzero" node-id="100" stroke="none" target-height="20" target-width="64" target-x="255" target-y="462"></path><path d="M 390.00 416.00 L 618.00 416.00 C 640.09 416.00 658.00 433.91 658.00 456.00 L 648.25 470.25 L 642.50 477.25 L 361.75 476.75 L 356.50 471.00 L 350.00 456.00 C 350.00 433.91 367.91 416.00 390.00 416.00 Z" fill="#b6bdc6" fill-rule="nonzero" node-id="102" stroke="none" target-height="61.25" target-width="308" target-x="350" target-y="416"></path><path d="M 642.00 482.00 L 366.00 482.00 C 357.18 482.00 350.00 474.82 350.00 466.00 L 350.00 456.00 C 350.00 433.94 367.94 416.00 390.00 416.00 L 618.00 416.00 C 640.06 416.00 658.00 433.94 658.00 456.00 L 658.00 466.00 C 658.00 474.82 650.82 482.00 642.00 482.00 Z M 390.00 432.00 C 376.77 432.00 366.00 442.77 366.00 456.00 L 366.00 466.00 L 642.00 466.00 C 642.01 466.00 642.01 466.00 642.01 466.00 L 642.00 456.00 C 642.00 442.77 631.23 432.00 618.00 432.00 L 390.00 432.00 Z" fill="#3d3d63" fill-rule="nonzero" node-id="104" stroke="none" target-height="66" target-width="308" target-x="350" target-y="416"></path><path d="M 505.84 411.11 C 487.45 411.11 468.98 408.11 451.03 402.08 C 361.34 371.95 312.88 274.46 343.02 184.77 C 348.62 168.09 356.72 152.44 367.09 138.23 L 389.71 154.75 C 381.03 166.63 374.25 179.73 369.56 193.69 C 344.34 268.74 384.89 350.32 459.95 375.54 C 535.01 400.76 616.59 360.21 641.80 285.15 L 668.35 294.07 C 653.75 337.52 623.11 372.69 582.06 393.09 C 557.97 405.06 531.98 411.11 505.84 411.11 Z" fill="#3d3d63" fill-rule="nonzero" node-id="106" stroke="none" target-height="272.873" target-width="355.46198" target-x="312.885" target-y="138.234"></path><path d="M 502.00 323.00 L 505.00 323.00 C 543.66 323.00 575.00 354.34 575.00 393.00 L 571.00 466.50 L 562.00 475.25 L 447.00 476.25 L 437.75 468.75 L 432.00 393.00 C 432.00 354.34 463.34 323.00 502.00 323.00 Z" fill="#ffffff" fill-rule="nonzero" node-id="108" stroke="none" target-height="153.25" target-width="143" target-x="432" target-y="323"></path><path d="M 559.00 482.00 L 448.00 482.00 C 439.18 482.00 432.00 474.82 432.00 466.00 L 432.00 393.00 C 432.00 354.40 463.40 323.00 502.00 323.00 L 505.00 323.00 C 543.60 323.00 575.00 354.40 575.00 393.00 L 575.00 466.00 C 575.00 474.82 567.82 482.00 559.00 482.00 Z M 502.00 339.00 C 472.22 339.00 448.00 363.23 448.00 393.00 L 448.00 466.00 L 559.00 466.00 C 559.01 466.00 559.01 466.00 559.01 466.00 L 559.00 393.00 C 559.00 363.23 534.77 339.00 505.00 339.00 L 502.00 339.00 Z" fill="#3d3d63" fill-rule="nonzero" node-id="110" stroke="none" target-height="159" target-width="143" target-x="432" target-y="323"></path><g node-id="222"><path d="M 533.00 402.50 C 533.00 418.79 519.79 432.00 503.50 432.00 C 487.21 432.00 474.00 418.79 474.00 402.50 C 474.00 386.21 487.21 373.00 503.50 373.00 C 519.79 373.00 533.00 386.21 533.00 402.50 Z" fill="#b6bdc6" fill-rule="nonzero" group-id="3" node-id="113" stroke="none" target-height="59" target-width="59" target-x="474" target-y="373"></path><path d="M 503.50 432.00 C 487.23 432.00 474.00 418.77 474.00 402.50 C 474.00 386.23 487.23 373.00 503.50 373.00 C 519.77 373.00 533.00 386.23 533.00 402.50 C 533.00 418.77 519.77 432.00 503.50 432.00 Z M 503.50 389.00 C 496.06 389.00 490.00 395.06 490.00 402.50 C 490.00 409.94 496.06 416.00 503.50 416.00 C 510.94 416.00 517.00 409.94 517.00 402.50 C 517.00 395.06 510.94 389.00 503.50 389.00 Z" fill="#3d3d63" fill-rule="nonzero" group-id="3" node-id="115" stroke="none" target-height="59" target-width="59" target-x="474" target-y="373"></path></g><g node-id="223"><path d="M 570.00 283.00 L 682.00 283.00 C 695.25 283.00 706.00 293.75 706.00 307.00 L 706.00 307.00 C 706.00 320.25 695.25 331.00 682.00 331.00 L 570.00 331.00 C 556.75 331.00 546.00 320.25 546.00 307.00 L 546.00 307.00 C 546.00 293.75 556.75 283.00 570.00 283.00 Z" fill="#b6bdc6" fill-rule="nonzero" group-id="4" node-id="119" stroke="none" target-height="48" target-width="160" target-x="546" target-y="283"></path><path d="M 682.00 331.00 L 570.00 331.00 C 556.77 331.00 546.00 320.23 546.00 307.00 C 546.00 293.77 556.77 283.00 570.00 283.00 L 682.00 283.00 C 695.23 283.00 706.00 293.77 706.00 307.00 C 706.00 320.23 695.23 331.00 682.00 331.00 Z M 570.00 299.00 C 565.59 299.00 562.00 302.59 562.00 307.00 C 562.00 311.41 565.59 315.00 570.00 315.00 L 682.00 315.00 C 686.41 315.00 690.00 311.41 690.00 307.00 C 690.00 302.59 686.41 299.00 682.00 299.00 L 570.00 299.00 Z" fill="#3d3d63" fill-rule="nonzero" group-id="4" node-id="121" stroke="none" target-height="48" target-width="160" target-x="546" target-y="283"></path></g><g node-id="224"><g node-id="231"><path d="M 246.35 112.24 L 271.71 60.19 C 275.10 53.24 283.48 50.35 290.43 53.73 L 384.07 99.36 C 391.02 102.74 393.91 111.12 390.52 118.07 L 365.16 170.13 C 361.77 177.08 353.39 179.97 346.44 176.58 L 252.80 130.96 C 245.85 127.58 242.96 119.19 246.35 112.24 Z" fill="#b6bdc6" fill-rule="nonzero" group-id="5,12" node-id="126" stroke="none" target-height="129.62256" target-width="150.94612" target-x="242.96391" target-y="50.347458"></path><path d="M 352.57 178.00 C 350.46 178.00 348.34 177.51 346.44 176.58 L 252.80 130.96 C 245.87 127.58 242.97 119.18 246.35 112.25 L 271.71 60.19 C 274.04 55.41 278.98 52.32 284.30 52.32 C 286.41 52.32 288.53 52.81 290.43 53.73 L 384.07 99.36 C 391.01 102.74 393.90 111.13 390.52 118.07 L 365.16 170.13 C 362.83 174.91 357.89 178.00 352.57 178.00 Z M 266.96 115.61 L 349.81 155.98 L 369.92 114.71 L 287.06 74.34 L 266.96 115.61 Z" fill="#3d3d63" fill-rule="nonzero" group-id="5,12" node-id="128" stroke="none" target-height="125.680664" target-width="150.93427" target-x="242.97052" target-y="52.318512"></path></g><g node-id="232"><path d="M 273.26 142.51 L 312.13 62.73 C 315.52 55.78 323.90 52.89 330.85 56.27 L 475.97 126.98 C 482.92 130.37 485.81 138.75 482.42 145.70 L 443.56 225.47 C 440.17 232.43 431.79 235.32 424.84 231.93 L 279.71 161.22 C 272.76 157.84 269.87 149.46 273.26 142.51 Z" fill="#ffffff" fill-rule="nonzero" group-id="5,13" node-id="132" stroke="none" target-height="182.4284" target-width="215.93756" target-x="269.8739" target-y="52.886673"></path><path d="M 430.97 233.34 C 428.86 233.34 426.74 232.85 424.84 231.93 L 279.71 161.22 C 272.77 157.84 269.88 149.45 273.26 142.51 L 312.13 62.73 C 314.46 57.95 319.40 54.86 324.72 54.86 C 326.83 54.86 328.95 55.35 330.85 56.27 L 475.97 126.98 C 482.91 130.36 485.81 138.76 482.42 145.70 L 443.56 225.47 C 441.23 230.25 436.29 233.34 430.97 233.34 Z M 293.87 145.87 L 428.21 211.32 L 461.82 142.33 L 327.48 76.88 L 293.87 145.87 Z" fill="#3d3d63" fill-rule="nonzero" group-id="5,13" node-id="134" stroke="none" target-height="178.48627" target-width="215.92615" target-x="269.87915" target-y="54.857513"></path></g><g node-id="233"><path d="M 403.79 224.12 L 456.85 115.21 C 464.84 98.81 484.62 91.99 501.02 99.98 L 501.02 99.98 C 517.43 107.97 524.25 127.75 516.25 144.16 L 463.19 253.07 C 455.20 269.47 435.42 276.29 419.02 268.30 L 419.02 268.30 C 402.61 260.31 395.79 240.53 403.79 224.12 Z" fill="#b6bdc6" fill-rule="nonzero" group-id="5,14" node-id="138" stroke="none" target-height="184.30054" target-width="128.45224" target-x="395.79483" target-y="91.98932"></path><path d="M 433.47 271.64 C 428.43 271.64 423.57 270.52 419.02 268.30 C 411.08 264.43 405.13 257.71 402.25 249.37 C 399.38 241.02 399.92 232.06 403.79 224.12 L 456.85 115.21 C 462.35 103.93 474.01 96.64 486.57 96.64 C 491.61 96.64 496.47 97.76 501.02 99.98 C 517.40 107.96 524.23 127.78 516.26 144.16 L 463.19 253.07 C 457.70 264.35 446.03 271.64 433.47 271.64 Z M 486.57 116.64 C 481.53 116.64 477.03 119.45 474.83 123.97 L 421.77 232.88 C 420.24 236.02 420.03 239.55 421.16 242.85 C 422.30 246.14 424.65 248.79 427.78 250.32 C 429.58 251.20 431.50 251.64 433.47 251.64 C 438.51 251.64 443.01 248.83 445.21 244.31 L 498.28 135.40 C 501.43 128.93 498.73 121.11 492.26 117.96 C 490.46 117.08 488.55 116.64 486.57 116.64 Z" fill="#3d3d63" fill-rule="nonzero" group-id="5,14" node-id="140" stroke="none" target-height="175.00223" target-width="124.85828" target-x="399.37653" target-y="96.63852"></path></g></g><path d="M 448.00 443.00 L 559.00 443.00 L 559.00 466.00 L 448.00 466.00 Z" fill="#b6bdc6" fill-rule="nonzero" id="矩形_137" node-id="34" stroke="none" target-height="23" target-width="111" target-x="448" target-y="443"></path><g node-id="225"><path d="M 413.62 204.07 L 294.00 145.78 L 304.13 124.99 L 423.75 183.27 Z" fill="#b6bdc6" fill-rule="nonzero" group-id="6" id="矩形_138" node-id="35" stroke="none" target-height="79.072815" target-width="129.75189" target-x="294.00153" target-y="124.992645"></path></g><g node-id="226"><g node-id="234"><g node-id="242"><path d="M 295.34 193.73 C 295.34 165.75 318.02 143.07 346.00 143.07 C 373.98 143.07 396.66 165.75 396.66 193.73 C 396.66 221.71 373.98 244.40 346.00 244.40 C 318.02 244.40 295.34 221.71 295.34 193.73 Z" fill="#b6bdc6" fill-rule="nonzero" group-id="7,15,23" node-id="153" stroke="none" target-height="101.32683" target-width="101.32681" target-x="295.33743" target-y="143.06995"></path></g><path d="M 345.95 244.40 C 320.87 244.40 299.33 225.65 295.83 200.79 C 293.95 187.39 297.40 174.06 305.54 163.25 C 313.68 152.44 325.55 145.45 338.95 143.57 C 341.30 143.24 343.69 143.07 346.05 143.07 C 371.13 143.07 392.67 161.82 396.17 186.69 C 398.05 200.09 394.60 213.42 386.46 224.23 C 378.32 235.03 366.45 242.02 353.05 243.90 C 350.70 244.23 348.31 244.40 345.95 244.40 Z M 346.05 159.07 C 344.44 159.07 342.79 159.19 341.18 159.41 C 332.01 160.70 323.89 165.48 318.32 172.88 C 312.75 180.27 310.39 189.39 311.68 198.56 C 314.07 215.57 328.80 228.40 345.95 228.40 C 347.56 228.40 349.21 228.29 350.82 228.06 C 359.99 226.77 368.11 221.99 373.68 214.59 C 379.25 207.20 381.61 198.08 380.32 188.91 C 377.93 171.90 363.20 159.07 346.05 159.07 Z" fill="#3d3d63" fill-rule="nonzero" group-id="7,15" node-id="156" stroke="none" target-height="101.332275" target-width="104.10251" target-x="293.94937" target-y="143.07043"></path></g><path d="M 325.08 193.73 C 325.08 182.18 334.44 172.81 346.00 172.81 C 357.56 172.81 366.93 182.18 366.93 193.73 C 366.93 205.29 357.56 214.66 346.00 214.66 C 334.44 214.66 325.07 205.29 325.08 193.73 Z" fill="#3d3d63" fill-rule="nonzero" group-id="7,16" id="椭圆_334" node-id="40" stroke="none" target-height="41.85199" target-width="41.85199" target-x="325.07483" target-y="172.80737"></path></g><g node-id="227"><g node-id="236"><path d="M 674.15 143.59 C 683.52 143.59 691.11 151.18 691.11 160.54 C 691.11 169.91 683.52 177.50 674.15 177.50 C 664.79 177.50 657.21 169.91 657.21 160.54 C 657.21 151.18 664.79 143.59 674.15 143.59 Z" fill="none" group-id="8,17" node-id="166" stroke="none" target-height="33.899994" target-width="33.900024" target-x="657.205" target-y="143.595"></path><path d="M 674.15 151.59 C 669.22 151.59 665.21 155.61 665.21 160.54 C 665.21 165.48 669.22 169.49 674.15 169.49 C 679.09 169.49 683.10 165.48 683.10 160.54 C 683.10 155.61 679.09 151.59 674.15 151.59 M 674.15 143.59 C 683.51 143.59 691.10 151.18 691.10 160.54 C 691.10 169.91 683.51 177.49 674.15 177.49 C 664.79 177.49 657.21 169.91 657.21 160.54 C 657.21 151.18 664.79 143.59 674.15 143.59 Z" fill="#8682f8" fill-rule="nonzero" group-id="8,17" node-id="168" stroke="none" target-height="33.899002" target-width="33.898987" target-x="657.205" target-y="143.595"></path></g><g node-id="237"><path d="M 286.51 172.51 C 297.75 172.51 306.87 181.63 306.87 192.87 C 306.87 204.11 297.75 213.23 286.51 213.23 C 275.27 213.23 266.15 204.11 266.15 192.87 C 266.15 181.63 275.27 172.51 286.51 172.51 Z" fill="none" group-id="8,18" node-id="172" stroke="none" target-height="40.712006" target-width="40.712006" target-x="266.155" target-y="172.515"></path><path d="M 286.51 180.51 C 279.70 180.51 274.15 186.06 274.15 192.87 C 274.15 199.68 279.70 205.23 286.51 205.23 C 293.32 205.23 298.87 199.68 298.87 192.87 C 298.87 186.06 293.32 180.51 286.51 180.51 M 286.51 172.51 C 297.75 172.51 306.87 181.63 306.87 192.87 C 306.87 204.11 297.75 213.23 286.51 213.23 C 275.27 213.23 266.15 204.11 266.15 192.87 C 266.15 181.63 275.27 172.51 286.51 172.51 Z" fill="#8682f8" fill-rule="nonzero" group-id="8,18" node-id="174" stroke="none" target-height="40.711" target-width="40.711" target-x="266.155" target-y="172.515"></path></g><g node-id="238"><path d="M 722.52 317.12 C 730.33 317.12 736.65 323.44 736.65 331.24 C 736.65 339.04 730.33 345.37 722.52 345.37 C 714.72 345.37 708.40 339.04 708.40 331.24 C 708.40 323.44 714.72 317.12 722.52 317.12 Z" fill="none" group-id="8,19" node-id="178" stroke="none" target-height="28.253998" target-width="28.254028" target-x="708.396" target-y="317.116"></path><path d="M 722.52 325.12 C 719.14 325.12 716.40 327.87 716.40 331.24 C 716.40 334.62 719.14 337.37 722.52 337.37 C 725.90 337.37 728.65 334.62 728.65 331.24 C 728.65 327.87 725.90 325.12 722.52 325.12 M 722.52 317.12 C 730.33 317.12 736.65 323.44 736.65 331.24 C 736.65 339.04 730.33 345.37 722.52 345.37 C 714.72 345.37 708.40 339.04 708.40 331.24 C 708.40 323.44 714.72 317.12 722.52 317.12 Z" fill="#8682f8" fill-rule="nonzero" group-id="8,19" node-id="180" stroke="none" target-height="28.253998" target-width="28.254028" target-x="708.396" target-y="317.116"></path></g><g node-id="239"><path d="M 550.89 76.17 L 518.20 76.17 C 515.99 76.17 514.20 74.38 514.20 72.17 C 514.20 69.96 515.99 68.17 518.20 68.17 L 550.89 68.17 C 553.10 68.17 554.89 69.96 554.89 72.17 C 554.89 74.38 553.10 76.17 550.89 76.17 Z" fill="#8682f8" fill-rule="nonzero" group-id="8,20" node-id="184" stroke="none" target-height="8" target-width="40.69098" target-x="514.2" target-y="68.169"></path><path d="M 534.54 92.52 C 532.34 92.52 530.54 90.72 530.54 88.52 L 530.54 55.82 C 530.54 53.61 532.34 51.82 534.54 51.82 C 536.75 51.82 538.54 53.61 538.54 55.82 L 538.54 88.52 C 538.54 90.72 536.75 92.52 534.54 92.52 Z" fill="#8682f8" fill-rule="nonzero" group-id="8,20" node-id="186" stroke="none" target-height="40.691998" target-width="8" target-x="530.545" target-y="51.823"></path></g><g node-id="240"><path d="M 248.93 395.60 L 224.23 395.60 C 222.02 395.60 220.23 393.81 220.23 391.60 C 220.23 389.39 222.02 387.60 224.23 387.60 L 248.93 387.60 C 251.14 387.60 252.93 389.39 252.93 391.60 C 252.93 393.81 251.14 395.60 248.93 395.60 Z" fill="#8682f8" fill-rule="nonzero" group-id="8,21" node-id="190" stroke="none" target-height="8" target-width="32.703003" target-x="220.229" target-y="387.6"></path><path d="M 236.58 407.00 C 234.37 407.00 232.58 405.21 232.58 403.00 L 232.58 378.30 C 232.58 376.09 234.37 374.30 236.58 374.30 C 238.79 374.30 240.58 376.09 240.58 378.30 L 240.58 403.00 C 240.58 405.21 238.79 407.00 236.58 407.00 Z" fill="#8682f8" fill-rule="nonzero" group-id="8,21" node-id="192" stroke="none" target-height="32.703003" target-width="8" target-x="232.581" target-y="374.297"></path></g><g node-id="241"><g node-id="243"><g node-id="244"><path d="M 586.14 247.53 C 583.93 247.53 582.14 245.74 582.14 243.53 L 582.14 236.21 C 582.14 234.00 583.93 232.21 586.14 232.21 C 588.35 232.21 590.14 234.00 590.14 236.21 L 590.14 243.53 C 590.14 245.74 588.35 247.53 586.14 247.53 Z" fill="#8682f8" fill-rule="nonzero" group-id="8,22,24,25" node-id="198" stroke="none" target-height="15.321991" target-width="8" target-x="582.137" target-y="232.211"></path><path d="M 586.14 214.84 C 583.93 214.84 582.14 213.05 582.14 210.84 L 582.14 203.52 C 582.14 201.31 583.93 199.52 586.14 199.52 C 588.35 199.52 590.14 201.31 590.14 203.52 L 590.14 210.84 C 590.14 213.05 588.35 214.84 586.14 214.84 Z" fill="#8682f8" fill-rule="nonzero" group-id="8,22,24,25" node-id="200" stroke="none" target-height="15.322006" target-width="8" target-x="582.137" target-y="199.519"></path></g><g node-id="245"><path d="M 573.45 227.53 L 566.13 227.53 C 563.92 227.53 562.13 225.74 562.13 223.53 C 562.13 221.32 563.92 219.53 566.13 219.53 L 573.45 219.53 C 575.66 219.53 577.45 221.32 577.45 223.53 C 577.45 225.74 575.66 227.53 573.45 227.53 Z" fill="#8682f8" fill-rule="nonzero" group-id="8,22,24,26" node-id="204" stroke="none" target-height="8" target-width="15.32196" target-x="562.13" target-y="219.526"></path><path d="M 606.14 227.53 L 598.82 227.53 C 596.61 227.53 594.82 225.74 594.82 223.53 C 594.82 221.32 596.61 219.53 598.82 219.53 L 606.14 219.53 C 608.35 219.53 610.14 221.32 610.14 223.53 C 610.14 225.74 608.35 227.53 606.14 227.53 Z" fill="#8682f8" fill-rule="nonzero" group-id="8,22,24,26" node-id="206" stroke="none" target-height="8" target-width="15.320984" target-x="594.823" target-y="219.526"></path></g><g node-id="246"><path d="M 571.99 241.67 C 570.97 241.67 569.94 241.28 569.16 240.50 C 567.60 238.94 567.60 236.41 569.16 234.84 L 574.34 229.67 C 575.90 228.10 578.43 228.10 580.00 229.67 C 581.56 231.23 581.56 233.76 580.00 235.32 L 574.82 240.50 C 574.04 241.28 573.01 241.67 571.99 241.67 Z" fill="#8682f8" fill-rule="nonzero" group-id="8,22,24,27" node-id="210" stroke="none" target-height="13.570084" target-width="13.956848" target-x="567.6008" target-y="228.1039"></path><path d="M 595.11 218.56 C 594.08 218.56 593.06 218.17 592.28 217.38 C 590.72 215.82 590.72 213.29 592.28 211.73 L 597.46 206.55 C 599.02 204.99 601.55 204.99 603.11 206.55 C 604.68 208.11 604.67 210.65 603.11 212.21 L 597.93 217.38 C 597.15 218.17 596.13 218.56 595.11 218.56 Z" fill="#8682f8" fill-rule="nonzero" group-id="8,22,24,27" node-id="212" stroke="none" target-height="13.567963" target-width="13.959656" target-x="590.71545" target-y="204.98857"></path></g><g node-id="247"><path d="M 600.28 241.67 C 599.26 241.67 598.24 241.28 597.46 240.50 L 592.28 235.32 C 590.72 233.76 590.72 231.23 592.28 229.67 C 593.84 228.11 596.37 228.11 597.93 229.67 L 603.11 234.84 C 604.67 236.41 604.67 238.94 603.11 240.50 C 602.33 241.28 601.31 241.67 600.28 241.67 Z" fill="#8682f8" fill-rule="nonzero" group-id="8,22,24,28" node-id="216" stroke="none" target-height="13.567963" target-width="13.958313" target-x="590.7161" target-y="228.10515"></path><path d="M 577.17 218.56 C 576.14 218.56 575.12 218.17 574.34 217.38 L 569.16 212.21 C 567.60 210.65 567.60 208.11 569.16 206.55 C 570.72 204.99 573.26 204.99 574.82 206.55 L 580.00 211.73 C 581.56 213.29 581.56 215.82 580.00 217.39 C 579.21 218.17 578.19 218.56 577.17 218.56 Z" fill="#8682f8" fill-rule="nonzero" group-id="8,22,24,28" node-id="218" stroke="none" target-height="13.567261" target-width="13.956909" target-x="567.6001" target-y="204.9891"></path></g></g></g></g></svg>