<?xml version="1.0" standalone="no"?><!DOCTYPE svg PUBLIC "-//W3C//DTD SVG 1.1//EN" "http://www.w3.org/Graphics/SVG/1.1/DTD/svg11.dtd"><svg t="1779844820618" class="icon" viewBox="0 0 1024 1024" version="1.1" xmlns="http://www.w3.org/2000/svg" p-id="6403" xmlns:xlink="http://www.w3.org/1999/xlink" width="200" height="200"><path d="M864.312889 433.834667l85.504-24.291556c43.576889-12.458667 74.012444-59.904 74.012444-115.598222 0-55.808-30.435556-103.253333-74.581333-115.712L533.390222 59.733333a85.219556 85.219556 0 0 0-21.219555-2.958222c-6.883556 0-14.336 1.137778-21.788445 2.958222L74.467556 178.232889c-43.52 12.515556-74.524444 59.904-74.524445 115.712 0 55.751111 30.378667 103.139556 74.524445 115.598222l85.504 24.291556 64.227555 18.432 266.752 76.401777a85.333333 85.333333 0 0 0 21.219556 3.015112c6.883556 0 14.336-1.137778 21.788444-3.015112l266.126222-75.832888m127.943111 39.139555v356.408889c0 21.959111 14.336 39.708444 32.085334 39.708444 17.806222 0 32.142222-17.806222 32.142222-39.708444V491.975111c0-21.959111-14.336-39.708444-32.142222-39.708444-17.749333 0-32.085333 17.749333-32.085334 39.708444z m-402.090666 99.612445a54.727111 54.727111 0 0 1-27.534222 0L160.540444 494.933333v273.976889c0 105.016889 96.938667 198.087111 351.630223 198.087111s351.573333-93.070222 351.573333-198.087111V494.933333l-337.806222 96.711111z m434.176-139.377778c-17.749333 0-32.085333 17.806222-32.085334 39.765333v356.408889c0 21.959111 14.336 39.708444 32.085334 39.708444 17.806222 0 32.142222-17.806222 32.142222-39.708444V491.975111c0-21.959111-14.336-39.708444-32.142222-39.708444z" fill="#1296db" p-id="6404"></path><path d="M928.028444 491.975111v356.408889c0 21.959111 14.336 39.708444 32.085334 39.708444 17.806222 0 32.142222-17.806222 32.142222-39.708444V491.975111c0-21.959111-14.336-39.708444-32.142222-39.708444-17.749333 0-32.085333 17.749333-32.085334 39.708444z" fill="#1296db" p-id="6405"></path></svg>